<svg width="181" height="77" viewBox="0 0 181 77" fill="none" xmlns="http://www.w3.org/2000/svg">
<path d="M82.3649 4.50926C86.6381 -0.485835 94.3618 -0.485835 98.6351 4.50926C101.767 8.17008 106.958 9.28812 111.319 7.24104L122.657 1.91936C126.328 0.19578 130.456 3.2081 129.934 7.23068C129.476 10.7537 132.647 13.6662 136.119 12.9116L153.387 9.15788C156.799 8.41624 158.95 12.7136 156.311 15C153.882 17.1047 155.496 21.0919 158.706 20.9138L171.829 20.1856C175.292 19.9934 176.325 24.819 173.087 26.0615C170.078 27.2158 170.695 31.6432 173.905 31.9299L177.748 32.2732C181.492 32.6077 181.703 38.0025 177.996 38.6286L177.371 38.7342C174.112 39.2848 173.906 43.8908 177.103 44.7306C180.555 45.6372 179.942 50.7111 176.373 50.7694L167.556 50.9136C164.362 50.9658 163.293 55.2082 166.08 56.7682C169.085 58.4503 167.56 63.045 164.146 62.5966L147.947 60.4698C144.673 60.04 142.37 63.6056 144.108 66.4129C146.027 69.5123 143.041 73.3215 139.573 72.199L123.942 67.1398C120.035 65.8751 115.832 67.9593 114.474 71.8354C112.816 76.5662 107.099 78.4057 102.994 75.5292L97.6678 71.7973C93.3648 68.7823 87.6351 68.7823 83.3321 71.7973L78.0061 75.5292C73.9008 78.4057 68.1838 76.5662 66.5262 71.8354C65.1682 67.9593 60.9653 65.8751 57.0578 67.1398L41.4269 72.199C37.9589 73.3215 34.9733 69.5123 36.8919 66.4129C38.6297 63.6056 36.3265 60.04 33.053 60.4698L16.8542 62.5966C13.4395 63.045 11.9148 58.4503 14.92 56.7682C17.7071 55.2082 16.6375 50.9658 13.444 50.9136L4.62682 50.7694C1.05813 50.7111 0.445075 45.6372 3.89716 44.7306C7.09446 43.8909 6.88818 39.2848 3.62862 38.7342L3.00356 38.6286C-0.703431 38.0025 -0.492277 32.6077 3.25231 32.2732L7.09472 31.9299C10.3046 31.6432 10.9223 27.2158 7.91338 26.0615C4.6746 24.819 5.70756 19.9934 9.17117 20.1856L22.2944 20.9138C25.5036 21.0919 27.118 17.1047 24.6888 15C22.05 12.7136 24.2006 8.41624 27.6125 9.15788L44.881 12.9116C48.3525 13.6662 51.5236 10.7537 51.0664 7.23068C50.5443 3.2081 54.6715 0.195779 58.3434 1.91936L69.6807 7.24104C74.0418 9.28812 79.2331 8.17008 82.3649 4.50926Z" fill="#FF0000"/>
<path d="M37.2915 46.36C35.7449 46.36 34.4049 46.1 33.2715 45.58C32.1515 45.06 31.2849 44.3 30.6715 43.3C30.0582 42.3 29.7515 41.1 29.7515 39.7C29.7515 38.62 29.9515 37.56 30.3515 36.52C30.7649 35.48 31.3515 34.5733 32.1115 33.8C32.8849 33.0266 33.8249 32.4266 34.9315 32C36.0515 31.5733 37.3315 31.36 38.7715 31.36C40.1315 31.36 41.3249 31.56 42.3515 31.96C43.3782 32.3466 44.1982 32.9266 44.8115 33.7C45.4249 34.46 45.7849 35.3666 45.8915 36.42L41.6915 36.9C41.5849 36.1933 41.2715 35.66 40.7515 35.3C40.2315 34.9266 39.5382 34.74 38.6715 34.74C37.7649 34.74 36.9715 34.9333 36.2915 35.32C35.6115 35.7066 35.0782 36.2666 34.6915 37C34.3049 37.7333 34.1115 38.56 34.1115 39.48C34.1115 40.6133 34.4182 41.48 35.0315 42.08C35.6582 42.68 36.5449 42.98 37.6915 42.98C38.6382 42.98 39.4049 42.8 39.9915 42.44C40.5782 42.0666 41.0182 41.4933 41.3115 40.72H45.5515C45.1382 42.56 44.2249 43.96 42.8115 44.92C41.4115 45.88 39.5715 46.36 37.2915 46.36Z" fill="white"/>
<path d="M49.6836 31.72H53.8836L51.6636 42.56H59.8436L58.7036 46H46.7636L49.6836 31.72Z" fill="white"/>
<path d="M64.1758 31.72H68.3758L65.4558 46H61.2558L64.1758 31.72Z" fill="white"/>
<path d="M76.8228 46.36C75.2761 46.36 73.9361 46.1 72.8028 45.58C71.6828 45.06 70.8161 44.3 70.2028 43.3C69.5895 42.3 69.2828 41.1 69.2828 39.7C69.2828 38.62 69.4828 37.56 69.8828 36.52C70.2961 35.48 70.8828 34.5733 71.6428 33.8C72.4161 33.0266 73.3561 32.4266 74.4628 32C75.5828 31.5733 76.8628 31.36 78.3028 31.36C79.6628 31.36 80.8561 31.56 81.8828 31.96C82.9095 32.3466 83.7295 32.9266 84.3428 33.7C84.9561 34.46 85.3161 35.3666 85.4228 36.42L81.2228 36.9C81.1161 36.1933 80.8028 35.66 80.2828 35.3C79.7628 34.9266 79.0695 34.74 78.2028 34.74C77.2961 34.74 76.5028 34.9333 75.8228 35.32C75.1428 35.7066 74.6095 36.2666 74.2228 37C73.8361 37.7333 73.6428 38.56 73.6428 39.48C73.6428 40.6133 73.9495 41.48 74.5628 42.08C75.1895 42.68 76.0761 42.98 77.2228 42.98C78.1695 42.98 78.9361 42.8 79.5228 42.44C80.1095 42.0666 80.5495 41.4933 80.8428 40.72H85.0828C84.6695 42.56 83.7561 43.96 82.3428 44.92C80.9428 45.88 79.1028 46.36 76.8228 46.36Z" fill="white"/>
<path d="M89.2148 31.72H93.4148L92.2948 37.22L99.1548 31.72H104.355L97.5548 37.26L101.915 46H97.3548L94.1748 39.62L91.3548 41.82L90.4948 46H86.2948L89.2148 31.72Z" fill="white"/>
<path d="M112.125 31.72H116.765L119.125 41.44L125.465 31.72H130.365L127.445 46H123.585L125.305 37.58L119.805 46H116.725L114.705 37.68L113.005 46H109.205L112.125 31.72Z" fill="white"/>
<path d="M133.668 31.72H146.108L145.448 34.94H137.128L136.688 37.12H144.588L143.928 40.34H136.028L135.528 42.78H144.468L143.408 46H130.748L133.668 31.72Z" fill="white"/>
<path d="M148.855 31.72H153.175L150.835 41.42H147.255L148.855 31.72ZM146.935 42.5H150.715L149.995 46H146.215L146.935 42.5Z" fill="white"/>
</svg>
