<svg width="291" height="34" viewBox="0 0 291 34" fill="none" xmlns="http://www.w3.org/2000/svg">
<path d="M0.5 32.232V32.732H1H33.8658H34.2972L34.3604 32.3052L35.592 23.9852L35.6769 23.412H35.0974H16.2151V1.768V1.268H15.7151H1H0.5V1.768V32.232ZM41.5354 29.2736L41.5374 29.275C45.7143 32.1119 51.5318 33.5 58.9319 33.5C66.419 33.5 72.3021 32.0832 76.5227 29.1884C80.8103 26.2487 82.963 22.1107 82.963 16.8293C82.963 11.6344 80.8543 7.58068 76.6515 4.72575C72.5168 1.8877 66.7199 0.5 59.3209 0.5C54.2672 0.5 49.9271 1.15914 46.3132 2.49335C42.7435 3.79879 39.9977 5.69792 38.1125 8.20915C36.2258 10.7223 35.2897 13.7033 35.2897 17.128C35.2897 22.3483 37.3743 26.417 41.5354 29.2736ZM113.312 32.4267L113.442 32.732H113.773H128.618H129.419L129.067 32.0122L114.157 1.5482L114.02 1.268H113.708H95.5575H95.2467L95.1091 1.54667L80.07 32.0107L79.7139 32.732H80.5183H95.0389H95.3744L95.5016 32.4215L97.384 27.8253H111.367L113.312 32.4267ZM130.725 32.232V32.732H131.225H150.219C158.084 32.732 164.16 31.4043 168.381 28.6843C172.632 25.945 174.789 21.9605 174.833 16.791V16.7867C174.833 11.6995 172.718 7.81025 168.505 5.18432C164.327 2.5514 158.209 1.268 150.219 1.268H131.225H130.725V1.768V32.232ZM156.962 12.0489L156.962 12.049L156.973 12.0575C158.247 13.0738 158.924 14.6574 158.924 16.9147C158.924 19.2321 158.244 20.8772 156.964 21.95C155.667 23.0364 153.623 23.6253 150.737 23.6253H146.116V10.3747H150.735C153.669 10.403 155.71 10.9932 156.962 12.0489ZM179.5 32.232V32.732H180H194.759H195.259V32.232V1.768V1.268H194.759H180H179.5V1.768V32.232ZM228.319 32.5793L228.466 32.732H228.678H241.227H241.727V32.232V1.768V1.268H241.227H227.443H226.943V1.768V15.9301L212.979 1.42128L212.831 1.268H212.619H199.94H199.44V1.768V32.232V32.732H199.94H213.724H214.224V32.232V17.9817L228.319 32.5793ZM269.503 22.2787H275.244V23.832C273.839 24.2021 272.038 24.3933 269.828 24.3933C266.44 24.3933 264.139 23.7837 262.802 22.6757C261.487 21.5575 260.77 19.6692 260.77 16.872C260.77 14.2028 261.386 12.3875 262.504 11.2997C263.625 10.2091 265.504 9.60667 268.267 9.60667C269.922 9.60667 271.128 9.84546 271.934 10.2737L271.945 10.2792C272.725 10.6694 273.296 11.3287 273.649 12.3057L273.775 12.6556L274.146 12.6353L288.971 11.8246L289.561 11.7923L289.431 11.2155C288.654 7.76836 286.367 5.12762 282.665 3.28337C278.974 1.4164 274.208 0.5 268.397 0.5C261.015 0.5 255.18 1.93206 250.948 4.85527L250.946 4.85669C246.734 7.79737 244.62 11.9205 244.62 17.1707C244.62 22.4237 246.758 26.4941 251.021 29.3207C255.254 32.128 261.262 33.5 268.982 33.5C272.871 33.5 276.588 33.1417 280.134 32.4236C283.722 31.7058 286.864 30.6838 289.555 29.3521L289.833 29.2144V28.904V14.3973V13.8973H289.333H269.503H269.003V14.3973V21.7787V22.2787H269.503ZM66.7294 17C66.7294 19.4759 66.0776 21.2427 64.8597 22.3971C63.6367 23.5562 61.7568 24.18 59.1264 24.18C56.496 24.18 54.6161 23.5562 53.3931 22.3971C52.1751 21.2427 51.5234 19.4759 51.5234 17C51.5234 14.5241 52.1751 12.7573 53.3931 11.6029C54.6161 10.4438 56.496 9.82 59.1264 9.82C61.7568 9.82 63.6367 10.4438 64.8597 11.6029C66.0776 12.7573 66.7294 14.5241 66.7294 17ZM104.374 10.9613L107.837 19.2733H100.91L104.374 10.9613Z" fill="#FF0000" stroke="#FF0000"/>
</svg>
